<svg width="12" height="12" viewBox="0 0 12 12" fill="none" xmlns="http://www.w3.org/2000/svg">
<g clip-path="url(#clip0_5_492)">
<path d="M10.4198 0.375H1.58025C0.90225 0.375 0.375 0.92775 0.375 1.58025V10.4198C0.375 11.0977 0.90225 11.625 1.58025 11.625H5.0205V7.8075H3.438V6H5.0205V4.644C5.0205 3.087 5.94975 2.208 7.356 2.208C8.0595 2.208 8.76225 2.334 8.76225 2.334V3.8655H7.98375C7.20525 3.8655 6.954 4.3425 6.954 4.845V6H8.6865L8.4105 7.8075H6.954V11.625H10.419C11.0723 11.625 11.625 11.0977 11.625 10.4198V1.58025C11.6205 1.26199 11.4921 0.958011 11.2671 0.732942C11.042 0.507873 10.738 0.37946 10.4198 0.375Z" fill="white"/>
</g>
<defs>
<clipPath id="clip0_5_492">
<rect width="12" height="12" fill="white"/>
</clipPath>
</defs>
</svg>
