<svg width="12" height="12" viewBox="0 0 12 12" fill="none" xmlns="http://www.w3.org/2000/svg">
<g clip-path="url(#clip0_5_489)">
<path d="M6.01269 3.09969C5.24694 3.09989 4.51261 3.40417 3.97114 3.94564C3.42967 4.48711 3.12539 5.22144 3.12519 5.98719C3.1232 6.36694 3.19654 6.74331 3.34094 7.09454C3.48535 7.44577 3.69796 7.76487 3.96649 8.0334C4.23502 8.30192 4.55412 8.51454 4.90535 8.65895C5.25657 8.80335 5.63295 8.87668 6.01269 8.87469C7.59519 8.87469 8.90019 7.59444 8.90019 5.98719C8.90019 4.40469 7.59519 3.09969 6.01269 3.09969ZM6.01269 7.87044C5.76536 7.87074 5.5204 7.82225 5.29183 7.72776C5.06326 7.63327 4.85556 7.49463 4.68064 7.31978C4.50571 7.14492 4.36699 6.93728 4.27241 6.70875C4.17783 6.48022 4.12925 6.23528 4.12944 5.98794C4.12944 4.95744 4.95744 4.12944 6.01194 4.12944C6.25611 4.12885 6.49799 4.17649 6.72369 4.26963C6.94939 4.36277 7.15447 4.49958 7.32716 4.6722C7.49984 4.84481 7.63673 5.04984 7.72997 5.27551C7.8232 5.50117 7.87094 5.74303 7.87044 5.98719C7.87044 7.04244 7.04244 7.87044 6.01269 7.87044ZM9.67869 2.99994C9.67909 2.9108 9.66183 2.82245 9.62789 2.74002C9.59396 2.65758 9.54403 2.58268 9.481 2.51964C9.41796 2.4566 9.34306 2.40668 9.26062 2.37274C9.17818 2.33881 9.08984 2.32155 9.00069 2.32194C8.91155 2.32155 8.8232 2.33881 8.74076 2.37274C8.65833 2.40668 8.58343 2.4566 8.52039 2.51964C8.45735 2.58268 8.40743 2.65758 8.37349 2.74002C8.33956 2.82245 8.3223 2.9108 8.32269 2.99994C8.3223 3.08909 8.33956 3.17743 8.37349 3.25987C8.40743 3.34231 8.45735 3.41721 8.52039 3.48025C8.58343 3.54328 8.65833 3.59321 8.74076 3.62714C8.8232 3.66107 8.91155 3.67834 9.00069 3.67794C9.08984 3.67834 9.17818 3.66107 9.26062 3.62714C9.34306 3.59321 9.41796 3.54328 9.481 3.48025C9.54403 3.41721 9.59396 3.34231 9.62789 3.25987C9.66183 3.17743 9.67909 3.08909 9.67869 2.99994ZM11.5874 3.67794C11.5372 2.77419 11.3362 1.97019 10.6829 1.31769C10.0304 0.663693 9.22719 0.462693 8.32269 0.412443C7.39344 0.362193 4.60644 0.362193 3.67719 0.412443C2.77344 0.462693 1.99494 0.663693 1.31694 1.31694C0.663693 1.96944 0.462693 2.77344 0.412443 3.67719C0.362193 4.60644 0.362193 7.39344 0.412443 8.32269C0.462693 9.22719 0.663693 10.0049 1.31694 10.6829C1.99494 11.3362 2.77344 11.5372 3.67719 11.5874C4.60644 11.6377 7.39344 11.6377 8.32269 11.5874C9.22719 11.5372 10.0304 11.3362 10.6829 10.6829C11.3362 10.0049 11.5372 9.22719 11.5874 8.32269C11.6377 7.39344 11.6377 4.60719 11.5874 3.67794ZM10.3822 9.30219C10.2059 9.80469 9.80469 10.1812 9.32694 10.3822C8.57394 10.6829 6.81594 10.6079 6.01194 10.6079C5.18394 10.6079 3.42594 10.6829 2.69769 10.3822C2.45286 10.2865 2.2305 10.1411 2.04462 9.95527C1.85874 9.76939 1.71338 9.54703 1.61769 9.30219C1.31694 8.57394 1.39194 6.81594 1.39194 5.98719C1.39194 5.18394 1.31694 3.42594 1.61769 2.67219C1.71798 2.4331 1.86525 2.21657 2.05077 2.03543C2.23628 1.8543 2.45627 1.71224 2.69769 1.61769C3.42594 1.31694 5.18394 1.39194 6.01269 1.39194C6.81594 1.39194 8.57394 1.31694 9.32769 1.61769C9.80469 1.79394 10.1812 2.19519 10.3822 2.67294C10.6829 3.42594 10.6079 5.18394 10.6079 5.98794C10.6079 6.81594 10.6829 8.57394 10.3822 9.30219Z" fill="white"/>
</g>
<defs>
<clipPath id="clip0_5_489">
<rect width="12" height="12" fill="white"/>
</clipPath>
</defs>
</svg>
