<svg width="12" height="12" viewBox="0 0 12 12" fill="none" xmlns="http://www.w3.org/2000/svg">
<g clip-path="url(#clip0_5_495)">
<path d="M10.779 3.54378C11.2548 3.19338 11.6676 2.76479 12 2.27628C11.5531 2.47507 11.0774 2.60165 10.5907 2.65128C11.1076 2.34774 11.4927 1.86237 11.6707 1.29003C11.1903 1.57534 10.6672 1.78148 10.1213 1.90053C9.88929 1.65418 9.60912 1.45819 9.29816 1.32478C8.9872 1.19136 8.65212 1.12337 8.31375 1.12503C7.98982 1.12483 7.66903 1.18848 7.36971 1.31233C7.07039 1.43618 6.79841 1.6178 6.56932 1.84682C6.34023 2.07584 6.15852 2.34776 6.03458 2.64704C5.91064 2.94632 5.8469 3.2671 5.847 3.59103C5.847 3.77853 5.871 3.96603 5.9175 4.15428C4.93629 4.09685 3.97743 3.83786 3.10074 3.39345C2.22406 2.94904 1.44835 2.32875 0.822 1.57128C0.60107 1.94858 0.487477 2.3791 0.4935 2.81628C0.4935 3.66153 0.91575 4.41303 1.59675 4.85853C1.19775 4.83603 0.79875 4.74153 0.4695 4.55328V4.57728C0.469457 5.14593 0.665706 5.69717 1.02509 6.13786C1.38448 6.57855 1.88496 6.88168 2.442 6.99603C2.23512 7.05184 2.02243 7.0833 1.80825 7.08978C1.64325 7.08978 1.503 7.06653 1.33875 7.04253C1.49388 7.53361 1.79957 7.96344 2.21254 8.27115C2.62551 8.57885 3.12481 8.74884 3.63975 8.75703C2.76886 9.44046 1.69428 9.81274 0.58725 9.81453C0.37575 9.81453 0.1875 9.79053 0 9.76728C1.08 10.4715 2.3715 10.8705 3.78075 10.8705C8.313 10.8705 10.7782 7.13703 10.7782 3.87303L10.779 3.54378Z" fill="white"/>
</g>
<defs>
<clipPath id="clip0_5_495">
<rect width="12" height="12" fill="white"/>
</clipPath>
</defs>
</svg>
