<svg width="12" height="12" viewBox="0 0 12 12" fill="none" xmlns="http://www.w3.org/2000/svg">
<path d="M11.6648 3.1605C11.5538 2.57175 11.0258 2.14275 10.4123 2.0085C9.49425 1.821 7.7955 1.6875 5.95725 1.6875C4.1205 1.6875 2.39475 1.82175 1.476 2.0085C0.8625 2.14275 0.33375 2.54475 0.2235 3.1605C0.11025 3.83025 0 4.76775 0 5.973C0 7.17825 0.111 8.11575 0.2505 8.7855C0.36225 9.375 0.891 9.804 1.503 9.9375C2.478 10.125 4.14825 10.2592 5.98575 10.2592C7.82325 10.2592 9.49425 10.125 10.4685 9.9375C11.0813 9.804 11.6093 9.402 11.721 8.7855C11.8328 8.11575 11.9715 7.15125 12 5.973C11.9438 4.76775 11.8043 3.83025 11.6648 3.1605ZM4.455 7.848V4.098L7.85175 5.973L4.455 7.848Z" fill="white"/>
</svg>
